<svg width="69" height="28" viewBox="0 0 69 28" fill="none" xmlns="http://www.w3.org/2000/svg">
<path d="M0.48 28V-1.90735e-06H4.2V24.28H13.76V28H0.48ZM18.9831 28C18.2365 28 17.5831 27.72 17.0231 27.16C16.4631 26.6 16.1831 25.9067 16.1831 25.08V2.92C16.1831 2.09333 16.4631 1.4 17.0231 0.839999C17.5831 0.279998 18.2365 -1.90735e-06 18.9831 -1.90735e-06H28.0631C28.9165 -1.90735e-06 29.6098 0.279998 30.1431 0.839999C30.7031 1.4 30.9831 2.09333 30.9831 2.92V25.08C30.9831 25.9067 30.7031 26.6 30.1431 27.16C29.6098 27.72 28.9165 28 28.0631 28H18.9831ZM21.2631 24.32H25.7831C26.2365 24.32 26.5965 24.1733 26.8631 23.88C27.1565 23.5867 27.3031 23.2267 27.3031 22.8V5.2C27.3031 4.74667 27.1565 4.38667 26.8631 4.12C26.5965 3.82667 26.2365 3.68 25.7831 3.68H21.2631C20.8898 3.68 20.5565 3.82667 20.2631 4.12C19.9965 4.38667 19.8631 4.74667 19.8631 5.2V22.8C19.8631 23.2267 19.9965 23.5867 20.2631 23.88C20.5565 24.1733 20.8898 24.32 21.2631 24.32ZM36.8366 28C36.0366 28 35.3566 27.72 34.7966 27.16C34.2366 26.6 33.9566 25.92 33.9566 25.12V2.84C33.9566 2.06667 34.2366 1.4 34.7966 0.839999C35.3566 0.279998 36.0366 -1.90735e-06 36.8366 -1.90735e-06H45.9166C46.7166 -1.90735e-06 47.3966 0.279998 47.9566 0.839999C48.5166 1.4 48.7966 2.06667 48.7966 2.84V9.08L45.0766 8.24V5.12C45.0766 4.72 44.9299 4.38667 44.6366 4.12C44.3699 3.82667 44.0366 3.68 43.6366 3.68H39.1166C38.7166 3.68 38.3699 3.82667 38.0766 4.12C37.8099 4.38667 37.6766 4.72 37.6766 5.12V22.84C37.6766 23.24 37.8099 23.5867 38.0766 23.88C38.3699 24.1467 38.7166 24.28 39.1166 24.28H43.6366C44.0366 24.28 44.3699 24.1467 44.6366 23.88C44.9299 23.5867 45.0766 23.24 45.0766 22.84V18.96H41.3966L42.2366 15.24H48.7966V25.12C48.7966 25.92 48.5166 26.6 47.9566 27.16C47.3966 27.72 46.7166 28 45.9166 28H36.8366ZM56.1706 28C55.424 28 54.7706 27.72 54.2106 27.16C53.6506 26.6 53.3706 25.9067 53.3706 25.08V2.92C53.3706 2.09333 53.6506 1.4 54.2106 0.839999C54.7706 0.279998 55.424 -1.90735e-06 56.1706 -1.90735e-06H65.2506C66.104 -1.90735e-06 66.7973 0.279998 67.3306 0.839999C67.8906 1.4 68.1706 2.09333 68.1706 2.92V25.08C68.1706 25.9067 67.8906 26.6 67.3306 27.16C66.7973 27.72 66.104 28 65.2506 28H56.1706ZM58.4506 24.32H62.9706C63.424 24.32 63.784 24.1733 64.0506 23.88C64.344 23.5867 64.4906 23.2267 64.4906 22.8V5.2C64.4906 4.74667 64.344 4.38667 64.0506 4.12C63.784 3.82667 63.424 3.68 62.9706 3.68H58.4506C58.0773 3.68 57.744 3.82667 57.4506 4.12C57.184 4.38667 57.0506 4.74667 57.0506 5.2V22.8C57.0506 23.2267 57.184 23.5867 57.4506 23.88C57.744 24.1733 58.0773 24.32 58.4506 24.32Z" fill="white"/>
</svg>
